<svg xmlns="http://www.w3.org/2000/svg" viewBox="0 0 200 240" fill="none">
  <g stroke="#42573A" stroke-linecap="round" stroke-linejoin="round">
    <path d="M108 28c2 18 0 32-6 46" stroke-width="1.2"/>
    <path d="M102 74c-28 12-44 40-36 70 8 32 40 48 64 32 26-16 28-52 12-74-10-14-24-22-40-28Z" stroke-width="1.35"/>
    <path d="M100 96c-8 22-6 44 8 62" stroke-width="0.9"/>
    <path d="M86 128c12 8 28 10 40 2" stroke-width="0.8"/>
    <path d="M108 40c-28-4-48 16-44 36 18 6 36-6 44-20Z" stroke-width="1.2"/>
    <path d="M112 44c22 2 38 20 30 38-16 4-28-8-30-22Z" stroke-width="1.15"/>
    <path d="M78 52c-8-16-2-28 12-32" stroke-width="1"/>
    <path d="M138 58c10-12 24-10 28 2" stroke-width="0.95"/>
  </g>
</svg>
